<svg data-v-29081953="" xmlns="http://www.w3.org/2000/svg" viewBox="0 0 300 300"><!----><defs data-v-29081953=""><!----></defs><rect data-v-29081953="" fill="transparent" x="0" y="0" width="300px" height="300px" class="logo-background-square"></rect><defs data-v-29081953=""><!----></defs><g data-v-29081953="" id="369aa964-914f-472d-8481-c141a46d19e2" fill="#000000" transform="matrix(1.9581254840380238,0,0,1.9581254840380238,113.76719479041687,133.14053932099463)"><path d="M1.48 14L2.58 14L2.58 3.78L1.48 3.78ZM4.35 8.83L8.64 3.78L7.32 3.78L3.35 8.54L3.35 9.21L7.55 14L8.93 14ZM9.62 10.33C9.62 12.45 11.20 14.14 13.43 14.14C15.64 14.14 17.22 12.45 17.22 10.33C17.22 8.25 15.64 6.58 13.43 6.58C11.20 6.58 9.62 8.25 9.62 10.33ZM10.65 10.36C10.65 8.76 11.80 7.49 13.43 7.49C15.04 7.49 16.17 8.76 16.17 10.36C16.17 11.94 15.04 13.23 13.43 13.23C11.80 13.23 10.65 11.94 10.65 10.36ZM24.88 3.08L24.88 7.66C24.23 6.94 23.35 6.58 22.27 6.58C20.23 6.58 18.59 8.20 18.59 10.33C18.59 12.52 20.22 14.14 22.29 14.14C23.48 14.14 24.37 13.69 25.02 12.87L25.21 14L25.89 14L25.89 3.08ZM22.32 13.23C20.89 13.23 19.66 11.97 19.66 10.33C19.66 8.72 20.89 7.49 22.32 7.49C23.52 7.49 24.37 8.11 24.85 9.03L24.85 11.68C24.36 12.63 23.53 13.23 22.32 13.23ZM31.43 6.58C29.39 6.58 27.80 8.19 27.80 10.33C27.80 12.50 29.34 14.14 31.44 14.14C33.11 14.14 34.37 13.06 34.61 11.76L33.61 11.76C33.40 12.66 32.55 13.23 31.44 13.23C30.00 13.23 28.94 12.15 28.83 10.63L34.65 10.63L34.75 10.54C34.93 8.41 33.45 6.58 31.43 6.58ZM28.87 9.74C29.12 8.39 30.18 7.48 31.42 7.48C32.70 7.48 33.60 8.48 33.74 9.76ZM41.89 14L43.37 14.01L39.38 10.35C41.66 10.25 43.29 8.99 43.29 7.11C43.29 5.12 41.54 3.78 39.13 3.78L36.92 3.78L36.92 14L38.01 14L38.01 10.35ZM39.12 4.73C40.96 4.73 42.18 5.68 42.18 7.11C42.18 8.51 40.96 9.42 39.13 9.42L38.01 9.42L38.01 4.73ZM44.70 10.33C44.70 12.45 46.28 14.14 48.51 14.14C50.72 14.14 52.30 12.45 52.30 10.33C52.30 8.25 50.72 6.58 48.51 6.58C46.28 6.58 44.70 8.25 44.70 10.33ZM45.74 10.36C45.74 8.76 46.89 7.49 48.51 7.49C50.12 7.49 51.25 8.76 51.25 10.36C51.25 11.94 50.12 13.23 48.51 13.23C46.89 13.23 45.74 11.94 45.74 10.36ZM59.47 6.72L56.94 13.15L54.42 6.72L53.23 6.72L56.36 14L57.50 14L60.62 6.72ZM65.18 6.58C63.14 6.58 61.56 8.19 61.56 10.33C61.56 12.50 63.10 14.14 65.20 14.14C66.86 14.14 68.12 13.06 68.36 11.76L67.37 11.76C67.16 12.66 66.30 13.23 65.20 13.23C63.76 13.23 62.69 12.15 62.58 10.63L68.40 10.63L68.50 10.54C68.68 8.41 67.20 6.58 65.18 6.58ZM62.62 9.74C62.87 8.39 63.94 7.48 65.17 7.48C66.46 7.48 67.35 8.48 67.49 9.76ZM73.91 6.58C73.14 6.58 72.27 6.97 71.33 7.76L71.15 6.72L70.41 6.72L70.41 14L71.44 14L71.44 8.75C72.35 7.98 73.09 7.59 73.71 7.59C74.03 7.59 74.31 7.64 74.55 7.73L74.68 6.71C74.47 6.64 74.21 6.58 73.91 6.58Z"></path></g><defs data-v-29081953=""><linearGradient data-v-29081953="" gradientTransform="rotate(25)" id="76fb698d-19f9-4569-bbfe-5ff185c3e19d" x1="0%" y1="0%" x2="100%" y2="0%"><stop data-v-29081953="" offset="0%" stop-color="#0D2175" stop-opacity="1"></stop><stop data-v-29081953="" offset="100%" stop-color="#1F1EFB" stop-opacity="1"></stop></linearGradient></defs><g data-v-29081953="" id="5a276a53-53cd-444a-9c63-36452db336d2" stroke="none" fill="url(#76fb698d-19f9-4569-bbfe-5ff185c3e19d)" transform="matrix(0.707390979581691,0,0,0.707390979581691,36.46270509330467,114.63140223597398)"><path d="M75.195 72.96a2.716 2.716 0 0 1-2.074-4.467L88.73 50 73.122 31.507a2.716 2.716 0 0 1 4.151-3.504L94.36 48.248a2.715 2.715 0 0 1 0 3.503L77.272 71.995a2.708 2.708 0 0 1-2.077.965zM24.805 72.96a2.71 2.71 0 0 1-2.076-.964L5.641 51.752a2.715 2.715 0 0 1 0-3.503l17.088-20.245a2.716 2.716 0 0 1 4.151 3.503L11.269 50.001l15.609 18.492a2.716 2.716 0 0 1-2.073 4.467zM37.325 72.96a2.715 2.715 0 0 1-2.299-4.156L60.37 28.315a2.715 2.715 0 1 1 4.604 2.881L39.63 71.685a2.714 2.714 0 0 1-2.305 1.275z"></path></g><!----></svg>